<?xml version="1.0" encoding="utf-8"?>
<!-- Generator: Adobe Illustrator 26.2.1, SVG Export Plug-In . SVG Version: 6.00 Build 0)  -->
<svg version="1.1" id="Layer_1" xmlns="http://www.w3.org/2000/svg" xmlns:xlink="http://www.w3.org/1999/xlink" x="0px" y="0px"
	 viewBox="0 0 609.4 392" style="enable-background:new 0 0 609.4 392;" xml:space="preserve">
<style type="text/css">
	.st0{fill:#F1F1F1;fill-opacity:0;}
	.st1{fill:#FFFFFF;}
	.st2{fill:#FAFAFA;}
	.st3{fill:#D1302C;}
	.st4{fill:#D2322E;}
	.st5{fill:#D1322E;}
</style>
<path class="st0" d="M0.9,366.6c0-113.4,0-226.9,0-340.4c203.1,0,406.1,0,609.4,0c0,113.2,0,226.4-0.2,340.1
	c-0.4,0.7-0.6,0.9-0.7,1.2c-202.3,0-404.6,0-607.4-0.2C1.4,366.9,1.1,366.7,0.9,366.6 M69.8,248.9c-1.3,4-3.1,7.9-3.7,12
	c-1.1,6.9-5.1,11.5-11.3,11.6c-5.7,0.1-11.3-5-12.3-11.2c-0.2-1.4-0.7-2.8-1.2-4.1c-8.5-23.2-17-46.5-25.6-69.7
	c-2.4-6.4-4.8-12.9-7.2-19.3c-0.2,0.1-0.4,0.1-0.7,0.2c0,1.3,0,2.5,0,3.8c0,53.7,0,107.4,0,161.1c0,15.2,9.1,24.3,24.4,24.3
	c113.2,0,226.3,0,339.5,0c1.5,0,3.1-0.2,4.7-0.2c0.2-1.6,0.3-2.7,0.4-3.9c1.8-20.2,19.5-36.2,40-36.2c20.6-0.1,38.4,15.7,40.2,35.9
	c0.3,3.5,1.4,4.6,5,4.5c38.4-0.1,76.9-0.1,115.3-0.1c14.9,0,24-9.3,24-24.3c0-62.2,0-124.5,0-186.7c0-1.4,0-2.7,0-3.5
	c-14.2,2.3-28,4.6-41.8,6.9c0.1,1.9,0.2,3.3,0.2,4.7c0,32.2,0,64.4,0,96.6c0,5.7-4.1,9.9-10,10.7c-5.1,0.7-10.1-2.6-11.7-7.8
	c-0.6-2.2-0.8-4.6-0.8-6.9c0-29.5,0-58.9,0.1-88.4c0-1.8,0-3.6,0-5.7c-8.5,1.3-16.3,2.5-24,3.5c-7.3,0.9-13-3.1-13.7-9.4
	c-0.8-7.1,3.3-11.8,10.9-12.9c20.6-3.1,41.2-6.6,61.9-9.3c9.5-1.3,18.9-5.7,29-1.6c0-21.2,0-42.1,0-62.9c0-17.5-8.7-26.3-26.1-26.3
	c-37.6,0-75.2,0-112.7,0c-1.5,0-3.1,0-4.5,0c-6.4,27.6-19.5,40.6-40.9,40.6c-9.1,0-17.4-2.7-24.7-8.3c-10.3-8-15.5-18.8-16.1-32.2
	c-2.1,0-3.8,0-5.5,0c-33.5,0-67,0-100.6,0c-79.1,0-158.2,0-237.2,0c-16.3,0-25.4,9.1-25.4,25.3c0,27.1,0,54.3,0,81.4
	c0,1.5,0,3,0,4.7c10.6-4,15.4-1.8,19.3,8.4c8.4,22.5,16.7,45.1,25.1,67.6c0.4,1.2,1,2.4,1.8,4.7c2.6-7,4.7-12.6,6.8-18.3
	c4.6-12.7,9-25.4,13.7-38c2.1-5.6,6.6-8.5,12.1-7.9c5,0.5,9.2,4.3,9.7,9.6c0.2,2.7-0.6,5.7-1.6,8.4
	C86.5,202.8,78.3,225.6,69.8,248.9z"/>
<rect x="7.8" y="107.5" class="st1" width="593.6" height="179"/>
<path class="st2" d="M0.9,367.1c0.3-0.3,0.5-0.2,0.8,0.2C1.5,367.5,1.2,367.5,0.9,367.1z"/>
<path class="st2" d="M609.9,367.5c-0.3-0.3-0.2-0.5,0.2-0.8C610.3,366.9,610.3,367.2,609.9,367.5z"/>
<path class="st3" d="M70,248.6c8.3-23.1,16.6-45.8,24.7-68.6c0.9-2.7,1.8-5.7,1.6-8.4c-0.4-5.3-4.6-9.1-9.7-9.6
	c-5.4-0.6-10,2.3-12.1,7.9c-4.6,12.6-9.1,25.3-13.7,38c-2.1,5.7-4.2,11.4-6.8,18.3c-0.9-2.2-1.4-3.4-1.8-4.7
	c-8.3-22.5-16.7-45.1-25.1-67.6c-3.8-10.3-8.7-12.4-19.3-8.4c0-1.7,0-3.2,0-4.7c0-27.1,0-54.3,0-81.4c0-16.2,9-25.3,25.4-25.3
	c79.1,0,158.2,0,237.2,0c33.5,0,67,0,100.6,0c1.7,0,3.4,0,5.5,0c0.5,13.4,5.7,24.2,16.1,32.2c7.2,5.6,15.6,8.4,24.7,8.3
	c21.4,0,34.5-13,40.9-40.6c1.4,0,3,0,4.5,0c37.6,0,75.2,0,112.7,0c17.4,0,26.1,8.8,26.1,26.3c0,20.9,0,41.8,0,62.9
	c-10-4.1-19.4,0.3-29,1.6c-20.7,2.8-41.3,6.2-61.9,9.3c-7.6,1.1-11.7,5.9-10.9,12.9c0.7,6.3,6.4,10.4,13.7,9.4
	c7.8-1,15.5-2.2,24-3.5c0,2.1,0,3.9,0,5.7c0,29.5-0.1,58.9-0.1,88.4c0,2.3,0.2,4.7,0.8,6.9c1.5,5.2,6.6,8.4,11.7,7.8
	c5.9-0.8,10-4.9,10-10.7c0.1-32.2,0-64.4,0-96.6c0-1.4-0.1-2.9-0.2-4.7c13.8-2.3,27.6-4.5,41.8-6.9c0,0.8,0,2.1,0,3.5
	c0,62.2,0,124.5,0,186.7c0,15-9.2,24.3-24,24.3c-38.4,0-76.9,0-115.3,0.1c-3.6,0-4.6-1-5-4.5c-1.8-20.2-19.6-36-40.2-35.9
	c-20.5,0.1-38.2,16.1-40,36.2c-0.1,1.1-0.2,2.3-0.4,3.9c-1.7,0.1-3.2,0.2-4.7,0.2c-113.2,0-226.3,0-339.5,0
	c-15.3,0-24.4-9.1-24.4-24.3c0-53.7,0-107.4,0-161.1c0-1.3,0-2.5,0-3.8c0.2-0.1,0.4-0.1,0.7-0.2c2.4,6.4,4.8,12.9,7.2,19.3
	c8.5,23.2,17.1,46.5,25.6,69.7c0.5,1.4,1,2.7,1.2,4.1c1,6.2,6.6,11.4,12.3,11.2c6.2-0.1,10.2-4.7,11.3-11.6
	C66.8,256.8,68.6,252.9,70,248.6 M113.5,172.5c-4.1,23.6,1.6,44.3,18.3,61.7c11.3,11.8,25.4,16.8,41.8,15.1
	c17.5-1.8,31.2-10.9,43.4-22.8c4.1-4,3.7-10.7-0.2-15c-4.3-4.6-10.7-4.4-16.4-0.1c-6.2,4.7-12.4,9.9-19.4,12.9
	c-20.2,8.8-43.2-6.2-44.5-28.8c10.2-1,20.4-1.9,30.6-3c15-1.6,30-3.1,44.9-5.3c11.1-1.6,14.2-6.7,12.2-17.7
	c-0.2-0.9-0.3-1.7-0.4-2.6c-4.9-26.1-25.2-43.8-50.2-44C145.2,122.6,119.6,143.6,113.5,172.5 M315.4,225.6
	c-19.8,5.5-39.4-8.5-41.4-29.8c0.8-0.2,1.6-0.5,2.4-0.6c12.4-1.2,24.8-2.2,37.2-3.7c13.1-1.5,26.2-3.1,39.2-5.2
	c7.1-1.2,10.1-5.8,9.4-12.9c-1.2-12.2-5.2-23.5-13.3-33c-16.1-19-42.9-23.1-66.5-10.3c-39.4,21.4-44.2,78.5-8.9,107.8
	c10.8,9,23.3,12.6,37.2,11.3c17.7-1.7,31.5-10.9,43.8-22.9c4.5-4.4,3.6-11.8-1.2-15.9c-4.4-3.8-10.4-3.5-15.4,0.9
	C331.4,217.3,324.4,222.5,315.4,225.6 M500,204.9c-0.4-3-0.6-6.1-1.1-9.1c-2.1-13.2-4.8-26.3-12.1-37.8
	c-7.4-11.5-17.7-18.5-31.6-18.4c-11.3,0.1-21.7,3.6-30.5,10.9c-10.4,8.5-17,19.7-21.4,32.2c-5.9,16.6-8.7,33.9-11.2,51.3
	c-1.2,8.4,2.4,14.1,9.2,15.1c6.8,1,12.1-4.1,13.2-12.4c0-0.3,0-0.6,0.1-0.9c2.9-14,5.4-28.1,8.9-42c2.2-9.1,6.6-17.3,13.4-24
	c4.7-4.5,10.3-6.9,16.7-7.5c7.3-0.6,12.9,3.3,16.7,12c5.1,11.6,6.9,24,7.7,36.4c1.2,18.7,1.8,37.4,2.7,56.1
	c0.3,7.6,5,12.5,11.7,12.3c6.8-0.2,11.2-5.7,10.8-13.5c-0.3-7.4-0.5-14.8-0.9-22.2C501.6,230.8,500.8,218.2,500,204.9z"/>
<path class="st1" d="M113.6,172.1c6-28.5,31.6-49.5,59.8-49.3c25.1,0.2,45.3,18,50.2,44c0.2,0.9,0.3,1.7,0.4,2.6
	c2,11-1,16-12.2,17.7c-14.9,2.2-29.9,3.7-44.9,5.3c-10.2,1.1-20.4,2-30.6,3c1.3,22.7,24.3,37.7,44.5,28.8c7-3.1,13.2-8.3,19.4-12.9
	c5.7-4.3,12.1-4.5,16.4,0.1c3.9,4.3,4.3,11,0.2,15c-12.2,11.9-25.9,21-43.4,22.8c-16.3,1.7-30.4-3.3-41.8-15.1
	C115.2,216.8,109.4,196.1,113.6,172.1 M200,165.4c-6.1-16.2-20.3-23.4-36.9-18.5c-12.9,3.9-21.4,12.4-26.5,26.2
	C158.4,170.7,179.2,168.4,200,165.4z"/>
<path class="st1" d="M315.7,225.5c8.7-3.1,15.6-8.2,22.2-14c5-4.5,10.9-4.7,15.4-0.9c4.8,4.1,5.7,11.5,1.2,15.9
	c-12.3,12-26.1,21.2-43.8,22.9c-14,1.4-26.4-2.3-37.2-11.3c-35.2-29.3-30.5-86.5,8.9-107.8c23.6-12.8,50.5-8.7,66.5,10.3
	c8,9.5,12,20.7,13.3,33c0.7,7.1-2.3,11.7-9.4,12.9c-13,2.2-26.1,3.7-39.2,5.2c-12.4,1.4-24.8,2.4-37.2,3.7c-0.8,0.1-1.6,0.4-2.4,0.6
	C276,217.1,295.6,231.1,315.7,225.5 M309.8,169.2c9.2-1,18.4-1.9,27.7-2.9c-3.1-13.5-15.5-22-30.2-20.8c-14.8,1.2-31.4,15.1-32,27.2
	C286.6,171.6,297.8,170.5,309.8,169.2z"/>
<path class="st1" d="M500,205.2c0.8,13,1.6,25.6,2.3,38.2c0.4,7.4,0.6,14.8,0.9,22.2c0.4,7.8-4,13.3-10.8,13.5
	c-6.7,0.2-11.4-4.7-11.7-12.3c-0.9-18.7-1.5-37.4-2.7-56.1c-0.8-12.4-2.6-24.8-7.7-36.4c-3.8-8.8-9.4-12.7-16.7-12
	c-6.4,0.5-12,2.9-16.7,7.5c-6.9,6.7-11.2,14.9-13.4,24c-3.4,13.9-6,28-8.9,42c-0.1,0.3,0,0.6-0.1,0.9c-1,8.4-6.3,13.4-13.2,12.4
	c-6.8-1-10.4-6.6-9.2-15.1c2.5-17.4,5.2-34.7,11.2-51.3c4.5-12.5,11-23.6,21.4-32.2c8.9-7.3,19.2-10.8,30.5-10.9
	c14-0.1,24.2,6.9,31.6,18.4c7.4,11.5,10.1,24.5,12.1,37.8C499.3,198.8,499.6,201.8,500,205.2z"/>
<path class="st4" d="M200,165.7c-20.8,2.7-41.6,5-63.3,7.4c5.1-13.8,13.6-22.3,26.5-26.2C179.8,142,194,149.2,200,165.7z"/>
<path class="st5" d="M309.4,169.3c-11.6,1.2-22.8,2.4-34.1,3.5c0.6-12.1,17.2-26,32-27.2c14.7-1.2,27.2,7.3,30.2,20.8
	C328.3,167.3,319.1,168.3,309.4,169.3z"/>
</svg>
